<svg xmlns="http://www.w3.org/2000/svg" viewBox="0 0 1200 780" width="1200" height="780">
  <defs>
    <marker id="arrowA" markerWidth="10" markerHeight="7" refX="9" refY="3.5" orient="auto">
      <polygon points="0 0, 10 3.5, 0 7" fill="#d97757"/>
    </marker>
    <marker id="arrowB" markerWidth="10" markerHeight="7" refX="9" refY="3.5" orient="auto">
      <polygon points="0 0, 10 3.5, 0 7" fill="#7b8b5c"/>
    </marker>
    <marker id="arrowC" markerWidth="10" markerHeight="7" refX="9" refY="3.5" orient="auto">
      <polygon points="0 0, 10 3.5, 0 7" fill="#8c6f5a"/>
    </marker>
    <marker id="arrowE" markerWidth="10" markerHeight="7" refX="9" refY="3.5" orient="auto">
      <polygon points="0 0, 10 3.5, 0 7" fill="#b45309"/>
    </marker>
    <marker id="arrowF" markerWidth="10" markerHeight="7" refX="9" refY="3.5" orient="auto">
      <polygon points="0 0, 10 3.5, 0 7" fill="#9a6fb0"/>
    </marker>
    <marker id="arrowG" markerWidth="10" markerHeight="7" refX="9" refY="3.5" orient="auto">
      <polygon points="0 0, 10 3.5, 0 7" fill="#d97757"/>
    </marker>
    <marker id="arrowH" markerWidth="10" markerHeight="7" refX="9" refY="3.5" orient="auto">
      <polygon points="0 0, 10 3.5, 0 7" fill="#8f8a80"/>
    </marker>
    <style>
    text { font-family: 'Helvetica Neue', Helvetica, Arial, 'PingFang SC', 'Microsoft YaHei', 'Microsoft JhengHei', 'SimHei', sans-serif; }
    .title { font-size: 24px; font-weight: 700; fill: #141413; }
    .subtitle { font-size: 13px; font-weight: 500; fill: #8f8a80; }
    .section { font-size: 13px; font-weight: 700; fill: #8b7355; letter-spacing: 1.4px; }
    .section-sub { font-size: 12px; font-weight: 500; fill: #b4aba0; }
    .node-title { font-size: 18px; font-weight: 700; fill: #141413; }
    .node-sub { font-size: 12px; font-weight: 500; fill: #6b6257; }
    .node-type { font-size: 11px; font-weight: 700; fill: #a29a8f; letter-spacing: 0.08em; }
    .arrow-label { font-size: 12px; font-weight: 600; fill: #6b6257; }
    .legend { font-size: 12px; font-weight: 500; fill: #6b6257; }
    .footnote { font-size: 12px; font-weight: 500; fill: #a29a8f; }
    </style>
  </defs>
  <rect width="1200.0" height="780.0" fill="#f8f6f3"/>
  <text x="600.0" y="56" text-anchor="middle" class="title">Pi — AI Agent Toolkit (earendil-works/pi)</text>
  <text x="600.0" y="82" text-anchor="middle" class="subtitle">Layered npm workspaces monorepo: entry → coding agent → runtime → unified LLM API · sandboxed execution · supply-chain hardened</text>
  <rect x="44.0" y="118.0" width="1112.0" height="110.0" rx="16.0" fill="none" stroke="#ded8cf" stroke-width="1.4" stroke-dasharray="5 4"/>
  <text x="28.0" y="173.0" text-anchor="start" dominant-baseline="middle" font-size="14.0" font-weight="600" fill="#6b6257">Entry</text>
  <rect x="44.0" y="260.0" width="1112.0" height="140.0" rx="16.0" fill="none" stroke="#ded8cf" stroke-width="1.4" stroke-dasharray="5 4"/>
  <text x="28.0" y="330.0" text-anchor="start" dominant-baseline="middle" font-size="14.0" font-weight="600" fill="#6b6257">Coding Agent</text>
  <rect x="44.0" y="430.0" width="1112.0" height="160.0" rx="16.0" fill="none" stroke="#ded8cf" stroke-width="1.4" stroke-dasharray="5 4"/>
  <text x="28.0" y="510.0" text-anchor="start" dominant-baseline="middle" font-size="14.0" font-weight="600" fill="#6b6257">Runtime</text>
  <rect x="44.0" y="612.0" width="1112.0" height="148.0" rx="16.0" fill="none" stroke="#ded8cf" stroke-width="1.4" stroke-dasharray="5 4"/>
  <text x="28.0" y="686.0" text-anchor="start" dominant-baseline="middle" font-size="14.0" font-weight="600" fill="#6b6257">Backends</text>
  <path d="M 310.0,210.0 L 310.0,230.4 L 600.0,269.6 L 600.0,290.0" fill="none" stroke="#d97757" stroke-width="2.0" marker-end="url(#arrowA)"/>
  <path d="M 590.0,210.0 L 590.0,250.0 L 500.0,250.0 L 500.0,290.0 L 600.0,290.0" fill="none" stroke="#d97757" stroke-width="2.0" marker-end="url(#arrowA)" stroke-dasharray="6,4"/>
  <path d="M 880.0,210.0 L 880.0,250.0 L 700.0,250.0 L 700.0,290.0 L 600.0,290.0" fill="none" stroke="#d97757" stroke-width="2.0" marker-end="url(#arrowA)" stroke-dasharray="6,4"/>
  <path d="M 330.0,332.0 L 350.4,332.0 L 389.6,333.0 L 410.0,333.0" fill="none" stroke="#d97757" stroke-width="2.0" marker-end="url(#arrowA)"/>
  <path d="M 870.0,332.0 L 849.6,332.0 L 810.4,333.0 L 790.0,333.0" fill="none" stroke="#d97757" stroke-width="2.0" marker-end="url(#arrowA)"/>
  <path d="M 600.0,376.0 L 600.0,396.4 L 290.0,449.6 L 290.0,470.0" fill="none" stroke="#d97757" stroke-width="2.0" marker-end="url(#arrowA)"/>
  <path d="M 450.0,513.0 L 530.0,513.0" fill="none" stroke="#b45309" stroke-width="2.0" marker-end="url(#arrowE)"/>
  <path d="M 790.0,333.0 L 820.0,333.0 L 820.0,420.0 L 980.0,420.0 L 980.0,460.0" fill="none" stroke="#d97757" stroke-width="2.0" marker-end="url(#arrowA)" stroke-dasharray="6,4"/>
  <path d="M 670.0,556.0 L 600.0,556.0 L 600.0,610.0 L 210.0,610.0 L 210.0,654.0" fill="none" stroke="#b45309" stroke-width="2.0" marker-end="url(#arrowE)"/>
  <path d="M 670.0,556.0 L 660.0,556.0 L 660.0,615.0 L 440.0,615.0 L 440.0,654.0" fill="none" stroke="#b45309" stroke-width="2.0" marker-end="url(#arrowE)"/>
  <path d="M 670.0,556.0 L 720.0,556.0 L 720.0,620.0 L 670.0,620.0 L 670.0,654.0" fill="none" stroke="#b45309" stroke-width="2.0" marker-end="url(#arrowE)"/>
  <path d="M 970.0,654.0 L 970.0,600.0 L 450.0,600.0 L 450.0,513.0" fill="none" stroke="#d97757" stroke-width="2.0" marker-end="url(#arrowA)" stroke-dasharray="6,4"/>
  <rect x="200.0" y="148.0" width="220.0" height="62.0" rx="10.0" fill="#c8e4db" stroke="#8c6f5a" stroke-width="2.0"/>
  <rect x="206.0" y="154.0" width="208.0" height="50.0" rx="7.0" fill="none" stroke="#8c6f5a" stroke-width="1.2" opacity="0.65"/>
  <text x="310.0" y="166.0" text-anchor="middle" class="node-type">USER ENTRY</text>
  <text x="310.0" y="185.0" text-anchor="middle" class="node-title">pi (CLI)</text>
  <rect x="480.0" y="150.0" width="220.0" height="60.0" rx="10.0" fill="#f7ecda" stroke="#d0b893" stroke-width="1.8"/>
  <text x="590.0" y="168.0" text-anchor="middle" class="node-type">TUI LIB</text>
  <text x="590.0" y="186.0" text-anchor="middle" class="node-title">@earendil-works/pi-tui</text>
  <rect x="760.0" y="150.0" width="240.0" height="60.0" rx="10.0" fill="#efe8de" stroke="#d0c3b3" stroke-width="1.8"/>
  <text x="880.0" y="168.0" text-anchor="middle" class="node-type">CHAT BRIDGE</text>
  <text x="880.0" y="186.0" text-anchor="middle" class="node-title">pi-chat (Discord/TG)</text>
  <rect x="130.0" y="300.0" width="200.0" height="64.0" rx="10.0" fill="#efe8de" stroke="#d0c3b3" stroke-width="1.8"/>
  <text x="230.0" y="318.0" text-anchor="middle" class="node-type">EXTENSION · /review</text>
  <text x="230.0" y="338.0" text-anchor="middle" class="node-title">pi-review</text>
  <rect x="410.0" y="290.0" width="380.0" height="86.0" rx="10.0" fill="#c8e4db" stroke="#8c6f5a" stroke-width="2.0"/>
  <rect x="416.0" y="296.0" width="368.0" height="74.0" rx="7.0" fill="none" stroke="#8c6f5a" stroke-width="1.2" opacity="0.65"/>
  <text x="600.0" y="308.0" text-anchor="middle" class="node-type">SELF-EXTENSIBLE CODING AGENT</text>
  <text x="600.0" y="339.0" text-anchor="middle" class="node-title">@earendil-works/pi-coding-agent</text>
  <rect x="870.0" y="300.0" width="200.0" height="64.0" rx="10.0" fill="#efe8de" stroke="#d0c3b3" stroke-width="1.8"/>
  <text x="970.0" y="318.0" text-anchor="middle" class="node-type">EXTENSION · TUTORIAL</text>
  <text x="970.0" y="338.0" text-anchor="middle" class="node-title">pi-tutorial</text>
  <rect x="130.0" y="470.0" width="320.0" height="86.0" rx="10.0" fill="#c8e4db" stroke="#8c6f5a" stroke-width="2.0"/>
  <rect x="136.0" y="476.0" width="308.0" height="74.0" rx="7.0" fill="none" stroke="#8c6f5a" stroke-width="1.2" opacity="0.65"/>
  <text x="290.0" y="488.0" text-anchor="middle" class="node-type">AGENT LOOP · TOOLS · STATE</text>
  <text x="290.0" y="519.0" text-anchor="middle" class="node-title">@earendil-works/pi-agent-core</text>
  <rect x="530.0" y="470.0" width="280.0" height="86.0" rx="10.0" fill="#f7ecda" stroke="#d97757" stroke-width="2.0"/>
  <rect x="536.0" y="476.0" width="268.0" height="74.0" rx="7.0" fill="none" stroke="#d97757" stroke-width="1.2" opacity="0.65"/>
  <text x="670.0" y="488.0" text-anchor="middle" class="node-type">UNIFIED LLM API</text>
  <text x="670.0" y="519.0" text-anchor="middle" class="node-title">@earendil-works/pi-ai</text>
  <rect x="870.0" y="460.0" width="220.0" height="100.0" rx="10.0" fill="#efe8de" stroke="#d0c3b3" stroke-width="1.8"/>
  <text x="980.0" y="478.0" text-anchor="middle" class="node-type">Gondolin · Docker · OpenShell</text>
  <text x="980.0" y="516.0" text-anchor="middle" class="node-title">Sandbox Options</text>
  <rect x="110.0" y="654.0" width="200.0" height="70.0" rx="10.0" fill="#e9f1fb" stroke="#8c6f5a" stroke-width="1.8"/>
  <text x="210.0" y="672.0" text-anchor="middle" class="node-type">PROVIDER · GPT</text>
  <text x="210.0" y="695.0" text-anchor="middle" class="node-title">OpenAI</text>
  <rect x="340.0" y="654.0" width="200.0" height="70.0" rx="10.0" fill="#e9f1fb" stroke="#8c6f5a" stroke-width="1.8"/>
  <text x="440.0" y="672.0" text-anchor="middle" class="node-type">PROVIDER · CLAUDE</text>
  <text x="440.0" y="695.0" text-anchor="middle" class="node-title">Anthropic</text>
  <rect x="570.0" y="654.0" width="200.0" height="70.0" rx="10.0" fill="#e9f1fb" stroke="#8c6f5a" stroke-width="1.8"/>
  <text x="670.0" y="672.0" text-anchor="middle" class="node-type">PROVIDER · GEMINI</text>
  <text x="670.0" y="695.0" text-anchor="middle" class="node-title">Google</text>
  <rect x="810.0" y="654.0" width="320.0" height="70.0" rx="10.0" fill="#f7ecda" stroke="#d97757" stroke-width="1.8"/>
  <text x="970.0" y="672.0" text-anchor="middle" class="node-type">pinned deps · shrinkwrap · audit · min-release-age=2</text>
  <text x="970.0" y="695.0" text-anchor="middle" class="node-title">Supply-chain Hardening</text>
  <rect x="427.0" y="220.0" width="56" height="20" rx="6" fill="#f8f6f3" opacity="0.96"/>
  <text x="455.0" y="234.0" text-anchor="middle" class="arrow-label">launch</text>
  <rect x="522.0" y="260.0" width="56" height="20" rx="6" fill="#f8f6f3" opacity="0.96"/>
  <text x="550.0" y="274.0" text-anchor="middle" class="arrow-label">render</text>
  <rect x="762.0" y="220.0" width="56" height="20" rx="6" fill="#f8f6f3" opacity="0.96"/>
  <text x="790.0" y="234.0" text-anchor="middle" class="arrow-label">bridge</text>
  <rect x="338.5" y="302.5" width="63" height="20" rx="6" fill="#f8f6f3" opacity="0.96"/>
  <text x="370.0" y="316.5" text-anchor="middle" class="arrow-label">extends</text>
  <rect x="798.5" y="302.5" width="63" height="20" rx="6" fill="#f8f6f3" opacity="0.96"/>
  <text x="830.0" y="316.5" text-anchor="middle" class="arrow-label">extends</text>
  <rect x="413.5" y="393.0" width="63" height="20" rx="6" fill="#f8f6f3" opacity="0.96"/>
  <text x="445.0" y="407.0" text-anchor="middle" class="arrow-label">runtime</text>
  <rect x="455.0" y="483.0" width="70" height="20" rx="6" fill="#f8f6f3" opacity="0.96"/>
  <text x="490.0" y="497.0" text-anchor="middle" class="arrow-label">LLM call</text>
  <rect x="868.5" y="390.0" width="63" height="20" rx="6" fill="#f8f6f3" opacity="0.96"/>
  <text x="900.0" y="404.0" text-anchor="middle" class="arrow-label">isolate</text>
  <rect x="682.0" y="570.0" width="56" height="20" rx="6" fill="#f8f6f3" opacity="0.96"/>
  <text x="710.0" y="584.0" text-anchor="middle" class="arrow-label">verify</text>
  <rect x="921.0" y="706.0" width="247" height="90" rx="10" fill="#fffaf3" opacity="0.88"/>
  <line x1="931.0" y1="720.0" x2="961.0" y2="720.0" stroke="#d97757" stroke-width="2.0" marker-end="url(#arrowA)"/>
  <text x="971.0" y="724.0" class="legend">Invocation / extension</text>
  <line x1="931.0" y1="742.0" x2="961.0" y2="742.0" stroke="#b45309" stroke-width="2.0" marker-end="url(#arrowE)"/>
  <text x="971.0" y="746.0" class="legend">LLM provider calls</text>
  <line x1="931.0" y1="764.0" x2="961.0" y2="764.0" stroke="#d97757" stroke-width="2.0" marker-end="url(#arrowA)"/>
  <text x="971.0" y="768.0" class="legend">Supply-chain verification</text>
</svg>